<?xml version="1.0" standalone="no"?>
<!DOCTYPE svg PUBLIC "-//W3C//DTD SVG 20010904//EN"
 "http://www.w3.org/TR/2001/REC-SVG-20010904/DTD/svg10.dtd">
<svg version="1.0" xmlns="http://www.w3.org/2000/svg"
 width="396.000000pt" height="232.000000pt" viewBox="0 0 396.000000 232.000000"
 preserveAspectRatio="xMidYMid meet">

<g transform="translate(0.000000,232.000000) scale(0.100000,-0.100000)"
fill="#000000" stroke="none">
<path d="M2870 2316 c0 -2 9 -6 20 -9 11 -3 20 -1 20 4 0 5 -9 9 -20 9 -11 0
-20 -2 -20 -4z"/>
<path d="M2909 2268 c-6 -20 -5 -38 2 -49 6 -10 9 -4 9 19 0 17 -2 32 -5 32
-3 0 -5 -1 -6 -2z"/>
<path d="M916 2241 c-4 -5 -2 -21 4 -36 14 -36 13 -38 -10 -15 -11 11 -25 20
-31 20 -6 0 -8 -9 -4 -20 5 -17 2 -20 -23 -20 -17 0 -33 6 -35 13 -3 6 -6 -32
-6 -85 l-1 -98 53 0 c29 0 58 -5 64 -11 8 -8 13 -8 17 0 10 16 26 13 26 -5 0
-9 5 -12 12 -8 6 4 16 1 22 -7 6 -8 26 -19 45 -26 31 -11 34 -10 39 10 6 20 7
19 12 -8 3 -16 2 -34 -3 -40 -4 -5 -14 -19 -21 -29 -13 -19 -15 -18 -46 18
-41 46 -68 62 -83 47 -8 -8 -6 -11 9 -11 10 0 44 -25 74 -55 30 -30 58 -55 63
-55 4 0 7 -9 7 -20 0 -11 -4 -20 -10 -20 -5 0 -10 -6 -10 -14 0 -8 -10 -16
-22 -18 -22 -4 -22 -5 4 -18 15 -7 25 -16 23 -21 -8 -11 -68 -8 -85 5 -9 6 -8
2 3 -10 17 -21 17 -21 -7 -21 -14 0 -33 -8 -42 -18 -15 -14 -28 -16 -78 -11
l-61 6 28 -25 28 -25 229 0 229 0 -1 34 c-1 22 -7 37 -17 40 -9 3 -23 9 -31
12 -13 5 -13 4 0 -5 11 -9 0 -11 -45 -9 l-60 3 -5 40 c-3 26 -8 36 -13 27 -13
-20 -34 2 -41 43 -4 19 -14 39 -24 44 -14 9 -11 10 15 11 17 0 35 5 38 11 4 6
13 8 21 5 8 -3 14 -1 14 4 0 6 -7 10 -15 10 -19 0 -19 17 0 28 13 7 8 14 -24
40 -22 18 -51 32 -65 32 -40 0 -63 30 -58 73 3 30 8 37 26 37 28 0 52 36 29
44 -9 4 -24 -1 -34 -10 -18 -16 -19 -16 -19 10 0 46 17 66 55 66 37 0 65 -28
65 -65 0 -16 -2 -17 -10 -5 -7 11 -12 12 -21 3 -18 -18 -3 -46 21 -38 17 5 20
2 20 -21 0 -22 -2 -25 -15 -14 -12 10 -15 9 -15 -7 0 -18 9 -20 94 -22 l94 -2
6 43 c12 76 15 157 7 162 -16 10 -400 16 -405 7z m92 -28 c-12 -29 -54 -93
-60 -93 -17 0 -6 40 18 69 23 28 51 43 42 24z m-76 -107 c15 -11 10 -12 -35
-8 -28 2 -56 8 -61 13 -16 15 77 10 96 -5z m-88 -41 c-4 -8 -8 -15 -10 -15 -2
0 -4 7 -4 15 0 8 4 15 10 15 5 0 7 -7 4 -15z"/>
<path d="M1470 2100 l0 -140 -72 -1 c-69 0 -72 -1 -50 -16 26 -18 29 -41 6
-50 -8 -3 -20 -17 -25 -31 -7 -19 -6 -27 8 -38 26 -19 33 -17 33 10 0 14 4 27
9 30 13 9 20 -16 10 -36 -6 -10 -5 -19 1 -23 5 -3 10 -15 10 -26 0 -11 7 -22
15 -25 9 -4 15 -19 15 -36 0 -29 -2 -30 -30 -24 -17 3 -30 1 -30 -4 0 -6 37
-10 85 -10 l86 0 -2 103 -1 104 -34 0 c-29 0 -34 -4 -34 -23 0 -22 -1 -22 -32
-9 -48 19 -49 45 -4 45 20 0 36 5 36 10 0 6 7 10 15 10 9 0 15 9 15 23 0 13 9
32 20 42 11 10 20 29 20 42 0 16 -6 23 -20 23 -13 0 -20 7 -20 18 0 11 9 27
20 37 29 26 26 79 -5 110 -13 14 -29 25 -35 25 -6 0 -10 -49 -10 -140z m58
-319 c5 -33 -7 -73 -20 -69 -9 3 -37 77 -38 100 0 3 12 3 28 -1 18 -5 28 -15
30 -30z"/>
<path d="M2546 2108 c-9 -12 -16 -30 -16 -39 0 -22 32 -49 57 -49 29 0 104
-28 125 -46 25 -24 36 -104 15 -116 -12 -6 -14 -14 -8 -26 5 -9 12 -25 15 -34
3 -11 12 -15 25 -11 24 6 26 14 10 30 -6 6 -14 41 -16 77 l-6 66 44 -14 c58
-18 99 -37 99 -47 0 -4 -7 -12 -16 -17 -11 -6 -13 -12 -6 -16 6 -4 9 -13 6
-21 -4 -8 3 -15 18 -17 20 -3 23 -9 24 -48 4 -115 2 -109 32 -115 15 -3 44
-15 64 -25 20 -11 42 -20 47 -20 19 0 12 28 -11 44 -12 9 -18 19 -14 23 4 5
19 -5 32 -20 25 -30 31 -28 14 4 -15 26 9 26 43 -1 14 -11 28 -17 30 -13 3 5
4 57 2 116 -4 102 -15 144 -36 132 -11 -7 -91 34 -146 74 -28 20 -43 39 -44
54 l0 22 -9 -22 c-5 -13 -16 -23 -25 -23 -9 0 -15 -9 -15 -25 0 -14 -4 -25 -8
-25 -5 0 -33 17 -63 38 -30 22 -66 42 -80 45 -15 4 -51 25 -80 47 -61 46 -81
49 -103 18z"/>
<path d="M2860 2093 c-46 -6 -56 -17 -38 -42 15 -21 15 -21 33 -1 10 11 23 20
30 20 6 0 20 7 31 15 19 14 19 14 -1 13 -11 -1 -36 -3 -55 -5z"/>
<path d="M1053 2053 c-7 -2 -13 -13 -13 -24 0 -13 5 -17 16 -12 9 3 20 0 25
-8 13 -22 33 4 24 32 -7 20 -9 20 -17 6 -11 -21 -29 -22 -22 -2 6 16 6 16 -13
8z"/>
<path d="M3240 2045 c0 -8 10 -25 23 -37 l22 -23 -22 -3 c-22 -3 -23 -8 -23
-79 0 -41 3 -73 8 -71 4 3 21 11 39 18 30 13 32 16 27 59 -7 76 -35 151 -56
151 -10 0 -18 -7 -18 -15z m35 -115 c-12 -19 -25 -10 -25 16 0 23 1 24 16 10
8 -9 12 -20 9 -26z m-5 -24 c0 -3 -4 -8 -10 -11 -5 -3 -10 -1 -10 4 0 6 5 11
10 11 6 0 10 -2 10 -4z"/>
<path d="M3932 2048 c-12 -15 -28 -75 -37 -142 -5 -36 -11 -50 -26 -53 -11 -3
-26 -17 -33 -32 -23 -45 -49 -158 -42 -184 5 -23 9 -24 43 -17 21 5 39 7 41 6
2 -2 -4 -21 -13 -42 -9 -21 -12 -40 -8 -41 55 -19 104 -63 69 -63 -28 0 -24
-15 5 -16 l29 -1 0 78 c0 78 0 79 -25 79 -14 0 -25 5 -25 10 0 6 11 16 25 22
22 10 25 17 24 62 -1 48 -2 49 -12 23 -11 -27 -46 -45 -66 -33 -5 4 -11 1 -14
-6 -6 -18 -1 18 13 84 6 32 14 57 18 57 4 -1 20 -1 35 0 l28 1 -3 110 c-2 108
-5 122 -26 98z"/>
<path d="M1182 2000 c0 -14 2 -19 5 -12 2 6 2 18 0 25 -3 6 -5 1 -5 -13z"/>
<path d="M1680 2013 c-26 -10 -60 -46 -60 -65 0 -19 6 -21 53 -20 24 1 26 -2
16 -14 -9 -11 -14 -12 -19 -3 -4 6 -13 8 -19 5 -20 -13 -11 -25 17 -23 17 1
26 -3 25 -10 -2 -7 2 -13 7 -13 6 0 10 8 10 18 1 16 1 16 10 0 6 -9 18 -14 27
-12 29 7 47 -12 47 -50 0 -38 -2 -37 106 -48 14 -2 25 -8 25 -15 0 -20 15 -27
16 -7 1 10 1 22 0 26 0 4 17 -2 39 -13 39 -20 40 -22 24 -40 -9 -10 -19 -17
-23 -17 -15 4 -51 -14 -45 -23 13 -22 -18 -38 -74 -38 -59 1 -72 9 -72 47 0
12 -4 22 -9 22 -5 0 -16 3 -25 6 -11 4 -16 1 -16 -11 0 -14 -7 -16 -30 -13
-26 4 -29 2 -18 -9 10 -9 22 -10 46 -4 18 5 32 6 32 1 0 -5 -10 -11 -22 -13
-16 -3 -12 -5 12 -6 27 -1 31 -4 20 -11 -24 -16 -90 -12 -96 5 -5 12 -10 13
-20 4 -8 -6 -21 -9 -29 -5 -13 5 -15 -29 -15 -275 l0 -280 25 -24 c23 -24 29
-25 161 -25 123 0 136 2 118 15 -17 13 -13 14 50 15 56 0 67 -3 62 -15 -5 -13
13 -15 125 -15 125 0 131 1 155 25 l24 24 -2 283 -3 283 -22 3 c-13 2 -23 10
-23 18 0 8 -4 14 -10 14 -5 0 -10 7 -10 15 0 18 21 20 40 3 12 -11 12 -10 1 4
-11 15 -11 19 5 25 26 11 28 32 7 55 -17 19 -17 18 -28 -2 -11 -21 -12 -21
-24 6 -11 26 -11 26 6 13 17 -13 17 -13 1 7 -24 27 -23 44 3 44 13 0 18 -4 13
-12 -5 -7 -3 -8 6 -3 10 6 10 11 -3 20 -18 13 -24 30 -7 20 6 -3 13 1 16 10 5
12 9 13 20 4 25 -20 17 37 -9 67 -18 21 -35 28 -75 32 -36 3 -52 1 -52 -7 0
-8 -5 -9 -19 -1 -26 13 -169 14 -155 0 5 -5 41 -21 79 -34 39 -14 63 -25 54
-25 -8 -1 -44 10 -80 24 -35 14 -72 24 -82 21 -9 -2 -24 2 -31 10 -11 11 -44
14 -138 13 -68 0 -130 -3 -138 -6z m90 -119 c0 -2 -7 -4 -15 -4 -8 0 -15 4
-15 10 0 5 7 7 15 4 8 -4 15 -8 15 -10z m87 -25 c2 -16 -1 -19 -9 -11 -5 5 -7
15 -4 21 10 15 12 14 13 -10z m37 -1 c-3 -4 -9 -8 -15 -8 -5 0 -9 4 -9 8 0 5
7 9 15 9 8 0 12 -4 9 -9z m6 -22 c0 -2 -3 -11 -6 -20 -5 -12 -9 -13 -19 -3 -7
7 -11 15 -8 20 4 7 33 10 33 3z m279 -218 c-17 -42 -96 -100 -119 -88 -9 5
-20 6 -24 3 -3 -3 -6 2 -6 12 0 10 -8 24 -17 30 -17 12 -17 14 1 34 18 20 18
21 1 21 -10 0 -35 -5 -56 -12 -40 -12 -65 -4 -39 12 8 6 26 10 40 10 40 1 156
45 192 74 l33 26 3 -47 c2 -25 -2 -59 -9 -75z m-179 67 c0 -2 -10 -10 -22 -16
-21 -11 -22 -11 -9 4 13 16 31 23 31 12z m-143 -71 c-3 -3 -12 -4 -19 -1 -8 3
-5 6 6 6 11 1 17 -2 13 -5z m79 -317 c-7 -88 -15 -109 -40 -103 -11 3 -24 6
-28 6 -5 0 -8 4 -8 10 0 5 6 7 14 4 18 -7 23 2 31 56 8 61 15 80 26 80 5 0 7
-23 5 -53z m51 2 c-7 -59 -12 -68 -29 -51 -9 9 -9 15 0 24 7 7 12 27 12 45 0
18 5 33 11 33 8 0 10 -16 6 -51z m33 9 c0 -10 -4 -18 -8 -18 -5 0 -9 14 -9 30
0 20 3 26 9 18 4 -7 8 -21 8 -30z m165 -7 c-4 -20 -12 -40 -18 -44 -9 -6 -9
-10 1 -14 6 -2 12 -11 12 -19 0 -9 -8 -12 -27 -8 -16 3 -47 -1 -70 -10 -22 -8
-44 -12 -47 -9 -8 8 14 33 28 33 15 0 91 55 91 67 1 4 4 18 9 31 12 35 29 15
21 -27z m-55 -4 c0 -7 -8 -13 -18 -13 -10 0 -19 6 -19 13 0 7 9 13 19 13 10 0
18 -6 18 -13z m-301 -106 c11 -7 10 -11 -6 -19 -22 -12 -49 0 -39 17 9 13 26
14 45 2z"/>
<path d="M2557 1939 c-10 -6 -25 -8 -33 -5 -8 3 -21 3 -30 -1 -13 -5 -11 -10
12 -29 47 -41 145 -25 152 24 3 20 -1 22 -40 22 -24 0 -51 -5 -61 -11z"/>
<path d="M1194 1880 c0 -11 6 -22 13 -24 7 -3 13 1 13 8 0 7 -6 18 -13 24 -10
8 -13 6 -13 -8z"/>
<path d="M810 1782 l0 -102 30 0 30 0 0 68 c-1 50 -3 63 -11 50 -5 -10 -16
-18 -24 -18 -10 0 -11 5 -2 25 7 14 15 25 20 25 4 0 7 8 7 17 0 9 -3 13 -7 10
-3 -4 -15 0 -25 10 -17 15 -18 12 -18 -85z"/>
<path d="M2430 1761 c0 -117 1 -120 26 -140 14 -11 42 -23 63 -27 84 -14 87
-22 6 -23 -55 0 -75 2 -65 9 17 11 10 13 -14 4 -26 -10 -23 -164 4 -195 l19
-24 1 28 c0 31 28 37 54 12 8 -8 21 -15 28 -15 8 0 19 -5 26 -12 9 -9 12 -9
12 1 0 10 10 11 38 6 20 -3 41 -10 45 -15 5 -4 -3 -5 -16 -3 -14 3 -33 0 -44
-6 -13 -8 48 -10 225 -11 l243 0 -30 37 c-17 21 -31 46 -31 57 0 17 5 18 46
12 69 -9 77 -16 59 -50 -18 -34 -18 -36 -4 -36 19 0 39 68 39 133 0 52 -4 67
-21 83 -12 10 -23 18 -25 17 -12 -8 -24 -1 -25 15 0 13 -2 12 -9 -5 -9 -21
-16 -23 -85 -23 -75 0 -75 0 -76 28 -2 23 -2 24 -6 5 -2 -13 -9 -23 -14 -23
-6 0 -7 9 -4 20 5 17 2 20 -24 20 -21 0 -31 -5 -31 -15 0 -8 -5 -15 -11 -15
-6 0 -9 7 -5 15 4 11 -1 15 -18 15 -31 0 -58 32 -56 67 3 44 1 55 -10 48 -5
-3 -10 -16 -10 -28 l0 -21 -16 22 c-8 12 -26 22 -38 22 -34 0 -83 23 -148 69
-106 74 -98 79 -98 -58z m165 -71 c33 -13 55 -34 55 -54 0 -8 5 -18 10 -21 6
-3 10 -1 10 5 0 6 5 8 10 5 18 -11 11 -35 -7 -28 -24 9 -43 29 -36 37 4 3 -3
6 -15 6 -12 0 -22 -4 -22 -10 0 -5 -5 -10 -11 -10 -6 0 -9 7 -5 15 3 8 1 15
-4 15 -6 0 -10 -7 -10 -15 0 -18 -20 -20 -21 -2 0 10 -2 10 -6 0 -7 -18 -23
-16 -23 3 0 11 -6 14 -20 9 -16 -5 -20 -2 -20 18 0 14 6 28 13 30 21 9 75 7
102 -3z m381 -241 c11 -19 -17 -90 -35 -87 -21 4 -28 77 -9 89 18 12 36 11 44
-2z"/>
<path d="M1646 1862 c-3 -6 -1 -12 5 -14 7 -2 4 -10 -7 -18 -16 -13 -17 -13
-9 0 5 9 4 12 -1 7 -12 -11 -15 -77 -3 -77 5 0 9 7 9 16 0 9 5 12 12 8 6 -4 8
-3 4 4 -3 6 -1 23 4 38 11 27 -1 57 -14 36z"/>
<path d="M1727 1846 c-3 -8 -2 -18 3 -21 13 -8 24 15 12 27 -6 6 -11 4 -15 -6z"/>
<path d="M1685 1840 c-3 -5 -1 -10 4 -10 6 0 11 5 11 10 0 6 -2 10 -4 10 -3 0
-8 -4 -11 -10z"/>
<path d="M1218 1786 l-38 -56 37 -15 c20 -8 37 -14 37 -13 1 2 14 20 29 40 16
22 23 39 17 43 -5 3 -10 1 -10 -5 0 -7 -8 -9 -19 -5 -17 5 -19 2 -15 -22 4
-23 1 -29 -16 -30 -33 -3 -35 25 -5 52 16 15 25 33 23 46 -2 16 -10 9 -40 -35z"/>
<path d="M29 1801 l-29 -30 0 -421 1 -421 65 -30 66 -29 267 0 c255 0 268 1
289 20 21 20 39 66 29 76 -2 3 -43 8 -90 11 -84 6 -86 5 -80 -15 3 -14 0 -24
-9 -27 -20 -8 -71 13 -63 25 4 6 -6 10 -24 10 -16 0 -33 -5 -37 -12 -4 -6 -3
-9 2 -5 5 3 17 -1 27 -8 23 -16 31 -55 12 -55 -19 0 -28 17 -13 22 8 3 4 9
-10 17 -19 10 -30 10 -58 -4 -19 -9 -34 -20 -34 -25 0 -6 -21 -10 -47 -9 -42
0 -45 2 -25 11 12 6 22 15 22 20 0 11 -17 10 -25 -2 -3 -6 -11 -10 -17 -10 -6
0 -2 10 10 23 15 16 18 26 11 40 -7 11 -7 17 1 17 5 0 10 -4 10 -10 0 -5 7 -7
15 -4 11 4 13 2 9 -9 -4 -12 -1 -14 15 -10 11 3 23 14 26 24 6 18 -12 65 -22
56 -2 -3 0 -14 6 -25 20 -38 11 -37 -15 1 -16 25 -36 40 -55 44 -19 3 -44 23
-70 54 -51 61 -38 64 21 4 33 -33 52 -45 74 -45 16 0 37 -7 47 -16 9 -8 24
-17 33 -18 9 -1 26 -11 38 -23 23 -21 58 -27 58 -11 0 5 -7 23 -16 41 l-17 32
23 -20 c13 -11 32 -28 42 -38 18 -17 44 -15 33 3 -3 4 3 6 13 3 13 -3 18 2 18
16 0 11 -2 18 -4 16 -3 -2 -17 12 -32 33 -28 39 -115 90 -166 97 -36 5 -93 32
-164 79 -71 47 -58 45 43 -5 45 -23 111 -53 147 -66 36 -14 70 -29 77 -35 6
-5 39 -11 73 -12 42 -3 67 -9 78 -21 16 -16 15 -17 -18 -10 -19 3 -42 9 -52
11 -9 3 -20 -1 -24 -7 -4 -7 -3 -9 3 -6 6 4 13 1 16 -6 3 -8 21 -14 41 -15 36
-1 86 -27 86 -43 0 -10 -6 -13 -55 -24 -28 -7 -25 -9 30 -21 82 -18 85 -17 85
10 0 19 -4 22 -25 18 -31 -5 -32 10 -2 31 l22 16 -22 7 c-12 3 -24 12 -27 20
-4 10 0 11 20 4 14 -6 27 -10 30 -10 2 0 4 27 4 60 0 56 -2 60 -26 66 -17 4
-31 1 -42 -10 -15 -15 -13 -19 18 -51 19 -19 31 -35 27 -35 -4 0 -21 15 -38
34 -20 24 -38 35 -57 34 -45 -1 -124 40 -174 90 -27 25 -48 53 -48 61 0 10 10
5 30 -14 l30 -29 0 26 c0 34 37 63 104 83 67 20 124 59 132 90 4 14 4 29 0 32
-3 4 6 20 21 37 16 17 19 23 7 13 -30 -25 -34 -22 -34 24 0 36 2 40 23 37 20
-3 22 2 25 47 4 55 -6 54 -36 -5 -9 -19 -24 -36 -32 -38 -10 -3 -7 4 8 20 31
34 28 40 -15 33 l-38 -6 44 18 c60 24 73 48 42 74 -13 10 -19 19 -15 19 5 0 2
5 -6 10 -22 14 -513 13 -527 -1 -8 -8 -13 -8 -17 0 -14 22 -67 12 -97 -18z
m564 -108 c-7 -2 -21 -2 -30 0 -10 3 -4 5 12 5 17 0 24 -2 18 -5z m-273 -19
c0 -8 -4 -12 -10 -9 -5 3 -10 10 -10 16 0 5 5 9 10 9 6 0 10 -7 10 -16z m115
-264 c-3 -5 -10 -10 -16 -10 -5 0 -9 5 -9 10 0 6 7 10 16 10 8 0 12 -4 9 -10z
m-305 -107 c0 -7 -39 17 -46 28 -3 6 5 3 20 -6 14 -10 26 -19 26 -22z m-6
-297 c29 -20 33 -26 22 -35 -8 -7 -31 -15 -51 -18 -31 -5 -37 -3 -42 16 -3 11
-9 21 -14 21 -5 0 -9 5 -9 11 0 5 5 7 12 3 8 -5 9 -2 5 9 -10 26 35 22 77 -7z
m511 -86 c7 -12 -12 -12 -40 0 -18 8 -17 9 7 9 15 1 30 -3 33 -9z"/>
<path d="M3241 1784 c0 -11 3 -14 6 -6 3 7 2 16 -1 19 -3 4 -6 -2 -5 -13z"/>
<path d="M3350 1768 c0 -9 5 -20 10 -23 13 -8 13 5 0 25 -8 13 -10 13 -10 -2z"/>
<path d="M970 1751 c24 -20 40 -26 40 -16 0 2 -15 12 -32 20 l-33 16 25 -20z"/>
<path d="M1330 1749 c7 -11 14 -18 17 -15 8 8 -5 36 -17 36 -7 0 -7 -6 0 -21z"/>
<path d="M3586 1735 c-9 -13 -16 -32 -15 -42 0 -11 2 -13 6 -5 4 10 8 9 19 -5
12 -16 13 -13 14 30 0 26 -2 47 -4 47 -2 0 -11 -11 -20 -25z"/>
<path d="M922 1730 c0 -14 2 -19 5 -12 2 6 2 18 0 25 -3 6 -5 1 -5 -13z"/>
<path d="M1636 1734 c-4 -10 -1 -14 6 -12 15 5 23 28 10 28 -5 0 -13 -7 -16
-16z"/>
<path d="M3241 1705 c-1 -37 2 -42 35 -60 34 -18 35 -19 13 -27 -13 -5 -29 -6
-36 -4 -10 4 -13 -12 -13 -74 l0 -79 39 14 c22 7 42 10 46 7 4 -4 5 0 3 7 -5
23 70 45 100 30 27 -15 16 -24 -42 -33 -22 -4 -42 -9 -45 -13 -3 -3 4 -3 17 0
19 4 21 3 11 -9 -6 -7 -15 -11 -20 -8 -5 3 -9 0 -9 -5 0 -6 -5 -11 -11 -11 -5
0 -7 6 -3 13 5 8 3 8 -9 -2 -9 -7 -30 -11 -45 -9 -28 4 -29 3 -30 -39 0 -31 4
-43 16 -46 15 -4 388 -3 615 1 78 2 87 4 87 21 0 15 -10 19 -52 24 -69 7 -168
44 -175 65 -3 10 -12 32 -20 51 -14 31 -17 33 -28 17 -7 -9 -11 -26 -8 -36 4
-15 0 -20 -13 -21 -11 0 -52 -4 -91 -8 -57 -5 -73 -4 -73 6 0 7 -9 18 -20 25
-11 7 -20 17 -20 23 0 22 -39 35 -77 27 -53 -12 -63 -7 -53 28 4 16 5 32 2 36
-4 4 13 4 37 1 32 -4 41 -3 32 6 -15 15 -93 38 -85 25 5 -8 -23 7 -55 28 -2 2
-7 18 -11 36 l-8 33 -1 -40z"/>
<path d="M3367 1713 c-12 -12 -7 -33 8 -33 17 0 19 9 7 28 -5 7 -11 9 -15 5z"/>
<path d="M1880 1694 c0 -14 3 -14 15 -4 8 7 15 14 15 16 0 2 -7 4 -15 4 -8 0
-15 -7 -15 -16z"/>
<path d="M1470 1634 c0 -24 1 -25 21 -13 28 19 29 33 2 37 -19 3 -23 -1 -23
-24z"/>
<path d="M3581 1573 l-23 -22 26 -12 c33 -15 41 -7 30 28 l-9 28 -24 -22z"/>
<path d="M835 1495 c-21 -21 -25 -33 -25 -89 0 -58 2 -65 18 -59 16 6 16 5 0
-14 -16 -18 -18 -51 -18 -372 l0 -352 25 -24 24 -25 270 0 270 0 -2 38 -2 37
44 3 c52 4 67 -7 52 -37 -9 -17 -9 -21 2 -21 32 0 37 47 37 385 0 203 -4 335
-9 335 -16 0 -24 -21 -12 -33 18 -18 14 -50 -6 -43 -22 9 -35 -14 -17 -31 24
-24 18 -62 -12 -69 -18 -5 -22 -10 -15 -17 6 -6 12 -31 13 -56 l1 -46 6 45 c6
44 7 44 14 -28 5 -40 5 -131 1 -201 l-7 -129 -44 -7 c-25 -3 -46 -5 -48 -3 -2
2 -7 100 -10 218 -5 153 -3 211 4 200 6 -8 11 -32 11 -53 0 -34 2 -37 15 -24
23 24 15 94 -12 106 -18 8 -23 19 -23 46 0 20 4 34 9 30 18 -10 21 13 5 30
-15 15 -17 14 -30 -2 -14 -17 -14 -16 -12 7 2 14 9 24 16 22 20 -4 14 26 -8
38 -11 6 -24 19 -30 30 -10 19 -7 20 60 18 41 0 70 -5 70 -12 0 -6 5 -5 12 2
7 7 22 12 35 12 21 0 23 4 23 53 0 31 -6 61 -16 75 -17 24 -36 30 -28 8 4 -9
-7 -20 -30 -31 -30 -14 -39 -15 -52 -5 -8 7 -13 19 -10 27 3 7 3 20 0 28 -5
13 -45 15 -271 15 l-264 0 -24 -25z m152 -71 c-3 -3 -12 -4 -19 -1 -8 3 -5 6
6 6 11 1 17 -2 13 -5z m212 -31 c2 -2 -3 -3 -11 -3 -9 0 -19 7 -22 16 -6 15
-4 15 11 3 10 -7 20 -15 22 -16z m-159 -8 c-9 -23 -7 -25 18 -25 21 0 24 2 12
10 -13 9 -13 10 0 11 19 2 39 0 69 -7 19 -4 22 -7 11 -14 -9 -5 -20 -4 -29 3
-11 9 -15 9 -18 0 -6 -16 -83 -17 -83 -2 0 12 19 49 25 49 3 0 0 -11 -5 -25z
m150 -20 c10 -12 10 -15 -2 -15 -8 0 -15 7 -15 15 0 8 1 15 2 15 2 0 8 -7 15
-15z m-197 -12 c-7 -2 -21 -2 -30 0 -10 3 -4 5 12 5 17 0 24 -2 18 -5z m291
-9 c20 -20 20 -24 -1 -24 -26 0 -47 16 -39 29 10 15 22 14 40 -5z m-371 -13
c-5 -21 -44 -23 -51 -2 -3 10 0 12 12 8 10 -4 15 -3 11 3 -3 6 3 10 13 10 15
0 19 -5 15 -19z m154 -327 c-3 -3 -12 -4 -19 -1 -8 3 -5 6 6 6 11 1 17 -2 13
-5z m63 -148 c0 -2 -7 -6 -15 -10 -8 -3 -15 -1 -15 4 0 6 7 10 15 10 8 0 15
-2 15 -4z m72 -34 c-19 -6 -44 6 -37 18 4 7 14 6 28 -2 14 -7 17 -13 9 -16z
m-17 -34 c13 15 26 24 29 21 10 -10 -64 -79 -84 -79 -11 0 -20 5 -20 10 0 6 9
10 20 10 26 0 26 16 0 30 -11 6 -25 20 -31 33 -8 15 0 11 26 -15 l38 -36 22
26z m-125 -85 c0 -5 -14 -16 -30 -25 l-30 -17 16 25 c15 22 44 34 44 17z m410
-43 c-14 -4 -38 -8 -55 -9 -23 0 -26 2 -15 9 8 5 33 9 55 9 35 -1 37 -2 15 -9z"/>
<path d="M2497 1374 c-11 -11 3 -24 25 -24 17 0 18 2 8 15 -13 16 -23 19 -33
9z"/>
<path d="M470 1354 c0 -3 14 -19 30 -36 34 -33 38 -55 13 -61 -13 -3 -5 -10
27 -25 25 -12 53 -22 63 -22 21 0 23 38 2 46 -23 9 -18 23 10 30 27 7 31 24
15 55 -9 16 -22 19 -85 19 -41 0 -75 -3 -75 -6z"/>
<path d="M1441 1314 c0 -11 3 -14 6 -6 3 7 2 16 -1 19 -3 4 -6 -2 -5 -13z"/>
<path d="M1410 1290 c0 -39 29 -87 41 -68 11 17 11 41 0 34 -13 -8 -32 19 -25
37 3 8 1 18 -5 22 -7 4 -11 -5 -11 -25z"/>
<path d="M1478 1303 c7 -3 16 -2 19 1 4 3 -2 6 -13 5 -11 0 -14 -3 -6 -6z"/>
<path d="M475 1280 c3 -5 8 -10 11 -10 2 0 4 5 4 10 0 6 -5 10 -11 10 -5 0 -7
-4 -4 -10z"/>
<path d="M2455 1235 c-16 -15 -25 -35 -25 -53 0 -32 14 -42 57 -42 l25 0 -23
-20 -24 -19 23 -1 c13 0 20 4 17 10 -4 6 12 10 40 10 34 0 44 3 40 13 -4 6 0
4 8 -5 10 -13 23 -16 51 -11 29 4 40 2 54 -14 18 -21 52 -17 67 6 10 17 25 3
18 -16 -4 -11 -2 -14 8 -11 8 2 15 14 17 26 2 11 10 26 18 33 12 10 16 9 21
-9 3 -12 10 -22 15 -22 5 0 7 -4 4 -9 -3 -5 1 -14 9 -21 8 -7 15 -9 15 -6 0 4
10 0 22 -8 12 -9 27 -16 33 -16 5 0 2 5 -8 11 -9 6 -15 15 -11 20 3 6 0 10 -7
8 -25 -3 -39 1 -39 11 0 6 13 10 30 10 l29 0 -24 26 c-39 42 -32 68 15 54 18
-5 32 -4 40 3 10 9 11 9 6 0 -5 -8 -1 -13 9 -13 9 0 13 5 9 11 -4 7 -1 10 7 7
8 -3 13 -11 12 -17 -2 -6 7 -10 20 -8 13 1 21 -3 19 -10 -1 -8 9 -13 28 -13
17 0 30 5 30 11 0 8 5 7 15 -1 22 -18 28 -7 21 35 -12 64 -17 65 -359 64
l-306 -1 -26 -23z m455 5 c0 -5 -4 -10 -10 -10 -5 0 -10 5 -10 10 0 6 5 10 10
10 6 0 10 -4 10 -10z m109 -11 c3 -12 2 -12 -11 -1 -11 9 -18 10 -23 2 -3 -5
-1 -10 6 -10 7 0 9 -3 6 -6 -4 -4 -14 -1 -23 7 -15 12 -14 14 3 20 23 10 36 6
42 -12z m47 -24 c18 -14 18 -14 -4 -15 -13 0 -21 4 -18 9 4 5 0 12 -6 14 -7 3
-8 6 -2 6 5 1 19 -6 30 -14z m-182 -73 c3 -5 -1 -9 -9 -9 -8 0 -12 4 -9 9 3 4
7 8 9 8 2 0 6 -4 9 -8z m-137 -28 c-3 -3 -12 -4 -19 -1 -8 3 -5 6 6 6 11 1 17
-2 13 -5z"/>
<path d="M1453 1150 c1 -11 4 -20 8 -20 10 0 19 27 12 34 -12 12 -22 5 -20
-14z"/>
<path d="M2991 1123 c-22 -9 -51 -42 -41 -48 4 -3 10 -1 12 4 6 16 31 15 91
-2 52 -16 60 -16 80 -2 21 15 21 15 -7 15 -16 0 -37 6 -45 14 -18 15 -69 26
-90 19z"/>
<path d="M3313 1083 c11 -3 16 -11 13 -19 -3 -7 0 -16 7 -20 7 -4 9 -4 5 1 -4
4 -3 16 3 26 8 17 6 19 -18 18 -18 -1 -22 -3 -10 -6z"/>
<path d="M3395 1080 c3 -6 -1 -7 -9 -4 -10 4 -16 1 -16 -9 0 -25 -30 -41 -74
-40 -39 2 -40 1 -21 -13 20 -15 20 -16 -7 -38 -26 -20 -40 -44 -18 -31 6 3 10
1 10 -5 0 -6 6 -8 13 -5 6 4 2 -2 -11 -12 l-23 -19 36 1 c34 2 36 0 30 -27 -6
-24 -4 -27 11 -21 13 5 16 3 11 -10 -3 -8 -11 -35 -18 -59 -6 -24 -14 -37 -16
-30 -4 10 -8 10 -19 1 -9 -7 -14 -32 -14 -70 0 -32 -4 -60 -8 -63 -4 -2 -9
-59 -11 -125 l-3 -121 122 0 c112 0 121 1 116 18 -3 10 -10 53 -16 96 -10 77
-9 79 15 98 45 35 57 70 45 135 -5 32 -11 92 -13 133 -3 78 -18 115 -49 123
-14 4 -17 12 -12 36 5 23 2 37 -11 51 -18 20 -51 28 -40 10z m-98 -372 c-3 -8
-6 -5 -6 6 -1 11 2 17 5 13 3 -3 4 -12 1 -19z"/>
<path d="M3527 1066 c10 -14 26 -26 35 -26 9 0 23 -3 32 -6 12 -5 16 1 16 23
0 29 -2 30 -51 32 l-50 1 18 -24z"/>
<path d="M3917 1048 c13 -26 18 -29 21 -15 4 19 -14 47 -29 47 -5 0 -2 -15 8
-32z"/>
<path d="M2605 1060 c12 -4 27 -15 34 -24 13 -15 41 -22 41 -10 0 3 -7 12 -15
20 -8 9 -15 12 -15 8 0 -5 -5 -3 -12 4 -7 7 -21 12 -32 11 l-21 0 20 -9z"/>
<path d="M2717 1063 c-10 -9 -9 -23 2 -23 5 0 11 7 15 15 5 15 -5 20 -17 8z"/>
<path d="M2498 1053 c6 -2 9 -10 6 -15 -4 -6 -2 -8 4 -4 6 3 22 2 36 -4 17 -6
26 -6 26 0 0 10 50 -17 61 -33 4 -5 9 -4 13 1 4 6 -3 16 -14 22 -11 6 -18 15
-15 21 4 5 -4 9 -17 10 -13 0 -43 2 -68 4 -25 2 -39 1 -32 -2z"/>
<path d="M2866 1048 c3 -4 9 -8 15 -8 5 0 9 4 9 8 0 5 -7 9 -15 9 -8 0 -12 -4
-9 -9z"/>
<path d="M2835 1020 c-3 -5 -2 -10 4 -10 5 0 13 5 16 10 3 6 2 10 -4 10 -5 0
-13 -4 -16 -10z"/>
<path d="M2728 1013 c7 -3 16 -2 19 1 4 3 -2 6 -13 5 -11 0 -14 -3 -6 -6z"/>
<path d="M2866 1011 c-4 -5 -1 -11 6 -13 7 -3 9 -12 5 -22 -5 -13 -15 -17 -31
-14 -21 4 -23 2 -16 -16 7 -20 28 -24 23 -5 -2 5 1 9 5 9 8 0 9 -45 4 -102 -1
-9 -10 -19 -21 -23 -18 -5 -18 -7 -12 -102 0 -13 6 -23 12 -23 5 0 7 5 4 10
-3 6 1 10 9 10 10 0 14 -10 13 -35 -1 -19 -4 -35 -7 -35 -3 0 -5 -29 -6 -65 0
-46 4 -64 12 -61 7 3 10 -3 7 -15 -3 -10 -9 -16 -15 -13 -10 6 -6 -41 5 -52 4
-4 7 -16 7 -26 0 -19 -11 -21 -125 -18 -63 2 -76 10 -68 41 3 11 -1 21 -11 25
-9 3 -16 14 -16 23 0 14 2 14 10 1 5 -8 12 -12 15 -8 13 12 -35 48 -62 47 -22
-1 -24 -3 -7 -6 12 -2 24 -14 27 -26 5 -19 4 -20 -6 -6 -7 9 -17 14 -24 12 -6
-2 -16 4 -22 15 -6 11 -18 18 -28 17 -35 -3 -73 -17 -73 -27 0 -5 -4 -7 -9 -3
-5 3 -17 -2 -25 -11 -22 -21 -21 -83 2 -100 16 -13 16 -13 -3 -14 -20 -1 -20
-1 -1 -12 15 -8 21 -8 24 0 2 7 8 12 13 12 6 0 7 -6 3 -12 -6 -10 -4 -10 7 -1
19 18 37 16 48 -5 9 -17 5 -18 -47 -16 l-57 3 24 -19 c13 -11 35 -21 50 -21
14 -1 38 -2 53 -3 15 -1 25 1 22 5 -2 4 0 10 5 13 5 3 11 0 14 -8 4 -11 51
-14 239 -15 230 -1 280 5 281 34 0 6 7 16 14 23 21 22 16 42 -12 42 -16 0 -25
6 -25 16 0 12 3 14 13 6 18 -15 38 0 34 26 -4 30 -14 37 -31 23 -10 -8 -16 -9
-21 -2 -4 7 -15 5 -31 -5 -16 -11 -24 -12 -24 -5 0 7 -4 10 -9 7 -5 -4 -12 0
-14 6 -3 8 -6 5 -6 -6 -1 -15 -4 -16 -15 -7 -17 14 -27 -6 -19 -38 6 -23 -21
-31 -30 -8 -4 10 -6 9 -6 0 -1 -7 -13 -13 -27 -13 -14 0 -23 4 -19 10 3 6 2
10 -4 10 -6 0 -8 19 -4 50 3 30 1 61 -7 79 -10 25 -9 35 3 59 9 19 11 35 6 45
-5 9 -5 26 1 42 8 20 6 32 -5 48 -16 23 -20 67 -6 67 4 0 6 -11 3 -25 -3 -20
1 -27 24 -35 16 -6 35 -18 41 -27 7 -9 16 -13 20 -9 5 4 0 13 -10 20 -33 25
-19 37 23 20 22 -9 51 -14 64 -12 17 4 23 1 19 -9 -9 -23 11 -14 36 17 13 17
28 30 33 30 5 0 2 -7 -6 -16 -22 -22 -21 -56 2 -52 14 3 17 17 20 98 2 80 0
97 -15 107 -24 18 -32 16 -26 -6 2 -10 -2 -24 -9 -32 -25 -25 -29 -51 -12 -70
10 -11 13 -19 8 -19 -15 0 -43 37 -34 46 17 20 20 63 4 78 -8 9 -13 20 -10 25
4 5 -2 11 -11 13 -11 2 -23 -6 -30 -20 -17 -31 -16 -37 0 -23 14 11 27 5 27
-11 0 -5 -4 -6 -10 -3 -5 3 -10 0 -10 -8 0 -11 -15 -14 -62 -13 -35 1 -66 6
-71 11 -4 6 -4 38 -1 73 4 40 2 62 -4 62 -6 0 -13 -4 -16 -9z m104 -150 c0 -5
10 -13 23 -17 20 -6 20 -8 4 -13 -10 -4 -18 -10 -17 -15 2 -9 -39 -46 -51 -46
-4 0 -11 5 -14 10 -3 6 3 10 14 10 24 0 28 18 7 26 -15 6 -28 39 -18 48 9 10
52 7 52 -3z m-73 -23 c-3 -8 -6 -5 -6 6 -1 11 2 17 5 13 3 -3 4 -12 1 -19z
m-34 -88 c3 -14 1 -20 -6 -17 -7 2 -14 14 -15 26 -4 28 13 20 21 -9z m-258
-330 c-3 -5 0 -10 7 -11 7 0 4 -4 -7 -9 l-20 -9 20 -1 c17 -1 16 -3 -8 -16
-33 -18 -57 -12 -57 12 0 16 1 16 19 0 18 -17 19 -16 26 13 4 17 11 31 16 31
6 0 7 -4 4 -10z m50 -10 c-3 -5 -12 -10 -18 -10 -7 0 -6 4 3 10 19 12 23 12
15 0z"/>
<path d="M2537 999 c-11 -6 -40 -9 -65 -6 -26 4 -36 3 -23 -1 26 -8 41 -32 21
-32 -10 0 -10 -4 0 -15 9 -10 9 -15 1 -15 -6 0 -11 -4 -11 -9 0 -5 10 -7 23
-5 20 4 20 3 -3 -6 -17 -8 -26 -8 -28 0 -2 5 -8 8 -13 4 -12 -7 -12 -174 1
-174 6 0 10 -6 10 -14 0 -8 9 -18 20 -21 28 -9 25 -20 -10 -45 -16 -12 -30
-28 -30 -36 0 -17 16 -19 23 -1 2 6 34 27 70 45 53 27 69 32 85 23 17 -9 24
-6 42 17 12 15 19 22 16 15 -4 -6 -2 -14 4 -18 5 -3 10 -1 10 6 0 6 8 9 18 7
9 -3 25 3 36 13 18 17 18 18 -3 12 -12 -3 -21 -1 -21 6 0 6 7 11 15 11 18 0
65 48 64 64 -1 6 -5 22 -9 36 -8 22 -9 21 -7 -10 2 -29 -2 -37 -27 -49 -41
-19 -82 -4 -78 29 1 13 -3 38 -8 57 -9 26 -14 30 -24 21 -10 -10 -9 -15 6 -28
18 -15 18 -15 -1 -32 -20 -17 -21 -17 -27 7 -4 16 -13 25 -25 25 -25 0 -24 -8
4 -32 l22 -20 -35 2 c-63 5 -85 1 -73 -11 9 -9 26 -9 62 -2 76 15 107 -16 59
-59 -18 -15 -19 -18 -5 -14 9 3 17 3 17 1 0 -9 -46 -29 -82 -35 -43 -8 -41 2
5 30 l30 19 -26 6 c-15 4 -27 12 -27 17 0 5 -13 7 -30 3 -20 -4 -35 -2 -45 9
-13 13 -13 15 7 19 23 4 23 4 -1 6 -20 1 -21 3 -11 16 10 12 10 15 -4 15 -16
0 -24 19 -8 21 4 0 27 2 52 4 25 2 56 8 70 13 l25 9 -32 16 c-50 26 -53 41 -7
34 21 -3 34 -3 27 0 -16 6 -5 33 14 33 8 0 11 5 8 10 -4 6 -11 8 -16 5 -5 -4
-9 -1 -9 4 0 14 -20 14 -43 0z m21 -34 c-3 -3 -9 2 -12 12 -6 14 -5 15 5 6 7
-7 10 -15 7 -18z m-40 -237 c-3 -7 -15 -14 -29 -16 -24 -4 -24 -3 -4 12 24 19
38 20 33 4z"/>
<path d="M2667 994 c3 -8 19 -18 36 -21 17 -3 32 -14 34 -24 3 -10 11 -15 18
-13 19 8 -19 44 -45 44 -11 0 -23 7 -26 15 -4 8 -10 15 -15 15 -4 0 -6 -7 -2
-16z"/>
<path d="M3114 987 c-10 -12 -12 -17 -5 -10 7 6 20 9 27 6 8 -3 14 0 14 5 0
21 -18 21 -36 -1z"/>
<path d="M2785 959 c-11 -17 1 -21 15 -4 8 9 8 15 2 15 -6 0 -14 -5 -17 -11z"/>
<path d="M1711 956 c14 -13 69 -35 69 -28 0 9 -44 32 -62 32 -6 0 -9 -2 -7 -4z"/>
<path d="M1835 950 c4 -7 -3 -8 -20 -4 -14 3 -25 2 -24 -2 4 -23 -2 -36 -15
-31 -8 3 -17 1 -20 -6 -2 -7 -5 -3 -5 8 -1 17 -3 17 -11 5 -8 -13 -10 -13 -10
1 0 9 -10 19 -22 23 -32 8 -40 7 -33 -4 3 -6 -1 -7 -10 -4 -32 13 -44 -25 -44
-136 l1 -105 41 85 c22 47 42 79 45 71 2 -7 -16 -55 -42 -106 l-46 -93 0 -297
0 -296 63 -29 63 -29 262 0 c170 0 270 3 286 10 43 20 46 43 46 351 0 281 -1
291 -18 275 -10 -10 -27 -17 -38 -16 -14 0 -15 2 -4 6 8 3 25 15 38 26 20 19
22 29 22 137 0 110 -1 119 -25 144 -18 19 -34 26 -63 26 -21 0 -43 -5 -50 -12
-9 -9 -12 -9 -12 0 0 9 -47 12 -181 12 -122 0 -178 -3 -174 -10z m8 -47 c-3
-7 0 -13 6 -13 6 0 11 5 11 10 0 6 4 10 9 10 5 0 4 -14 -2 -30 -11 -29 -12
-30 -21 -10 -5 11 -13 20 -17 20 -5 0 -6 7 -3 15 4 8 1 15 -5 15 -6 0 -11 5
-11 10 0 6 7 6 19 -2 10 -6 17 -18 14 -25z m62 -23 c-5 -14 -2 -20 9 -20 9 0
16 -4 16 -8 0 -10 -29 -12 -31 -3 -6 27 -5 51 3 51 5 0 6 -9 3 -20z m275 -31
c0 -31 -1 -31 -45 -27 -25 2 -46 -1 -48 -6 -4 -12 -27 1 -27 15 0 5 25 7 58 5
31 -2 51 -2 45 1 -24 9 -15 33 15 42 1 1 2 -13 2 -30z m-154 -71 c-5 -26 -4
-28 20 -22 23 6 25 5 18 -22 -4 -16 -15 -46 -24 -67 -18 -37 -18 -37 3 -52 21
-15 22 -14 27 29 7 53 12 60 39 51 16 -5 21 -15 21 -41 0 -51 -24 -74 -74 -68
-51 7 -58 11 -51 34 3 11 -1 33 -9 49 -19 35 -20 76 -5 119 14 41 44 33 35
-10z m-70 -83 c-7 -19 -15 -38 -19 -41 -10 -11 -8 31 3 61 15 39 30 21 16 -20z
m220 -92 c-10 -10 -19 5 -10 18 6 11 8 11 12 0 2 -7 1 -15 -2 -18z m84 -2 c0
-5 -7 -14 -15 -21 -12 -10 -15 -10 -15 2 0 8 3 18 7 21 9 10 23 9 23 -2z
m-600 -252 c0 -6 -4 -7 -10 -4 -5 3 -10 11 -10 16 0 6 5 7 10 4 6 -3 10 -11
10 -16z m167 -123 c-5 -64 -45 -196 -59 -196 -13 0 -9 23 17 101 14 41 27 95
28 121 1 25 6 44 11 41 5 -3 6 -33 3 -67z m-117 -182 c33 -15 59 -29 57 -31
-6 -5 -109 36 -121 48 -16 15 -1 11 64 -17z"/>
<path d="M3100 950 c0 -5 4 -10 9 -10 6 0 13 5 16 10 3 6 -1 10 -9 10 -9 0
-16 -4 -16 -10z"/>
<path d="M3920 937 c-27 -16 -32 -17 -21 -4 18 22 -2 23 -43 2 -16 -9 -37 -17
-45 -18 -9 -1 -16 -6 -16 -10 0 -4 -17 -18 -38 -32 -21 -15 -35 -29 -33 -34 3
-4 -20 -21 -50 -37 -29 -16 -54 -32 -54 -37 0 -4 14 0 31 8 17 9 32 15 34 13
7 -7 -38 -164 -51 -179 -17 -19 -29 -98 -20 -133 6 -23 12 -26 46 -26 39 0 40
-1 40 -35 l0 -35 60 0 c66 0 80 11 80 65 0 8 5 15 11 15 7 0 8 -14 4 -40 -6
-38 6 -57 18 -27 4 10 6 9 6 0 1 -8 16 -13 41 -13 l40 0 0 73 c0 39 -4 67 -8
60 -13 -20 -72 -26 -78 -8 -9 22 0 28 42 29 21 1 39 6 41 12 2 7 -11 10 -42 7
-40 -4 -45 -3 -45 15 0 11 8 23 18 25 16 4 16 5 0 6 -21 1 -25 37 -5 44 9 4 9
8 -2 15 -21 15 3 42 31 37 30 -6 32 -12 15 -30 -9 -8 -14 -22 -11 -30 5 -12 8
-12 18 -2 7 7 13 19 13 27 0 9 3 28 7 44 6 24 5 27 -6 20 -7 -6 -19 -9 -25 -8
-7 1 -22 2 -33 3 -11 0 -20 8 -20 17 0 8 -4 12 -10 9 -5 -3 -8 -55 -7 -123 1
-89 -1 -116 -10 -114 -7 1 -13 -2 -13 -8 0 -5 -4 -10 -8 -10 -5 0 -10 43 -11
95 -2 78 1 96 13 101 9 3 16 11 16 16 0 6 -6 6 -14 -1 -20 -17 -28 1 -20 46 8
48 22 75 35 68 5 -4 9 -1 9 5 0 6 4 9 9 6 5 -3 11 3 14 14 4 16 2 18 -13 10
-15 -8 -17 -6 -13 10 3 11 30 34 59 51 30 17 54 35 54 40 0 11 2 12 -40 -14z
m-100 -52 c0 -2 -18 -14 -40 -25 -22 -11 -40 -18 -40 -15 0 2 17 13 38 24 42
23 42 23 42 16z"/>
<path d="M2820 913 c0 -17 16 -31 27 -25 9 6 6 11 -7 20 -11 7 -20 9 -20 5z"/>
<path d="M39 890 c13 -11 30 -20 39 -20 21 0 6 13 -33 28 l-30 12 24 -20z"/>
<path d="M3924 884 c-18 -14 -18 -15 4 -4 12 6 22 13 22 15 0 8 -5 6 -26 -11z"/>
<path d="M2700 880 c-12 -8 -11 -10 8 -10 12 0 22 5 22 10 0 13 -11 13 -30 0z"/>
<path d="M2795 880 c3 -5 11 -10 16 -10 6 0 7 5 4 10 -3 6 -11 10 -16 10 -6 0
-7 -4 -4 -10z"/>
<path d="M3245 840 c-3 -5 -2 -10 4 -10 5 0 13 5 16 10 3 6 2 10 -4 10 -5 0
-13 -4 -16 -10z"/>
<path d="M1448 803 c-2 -24 -8 -37 -15 -35 -7 1 -13 -7 -13 -18 0 -13 7 -20
20 -20 18 0 20 7 20 55 0 63 -7 73 -12 18z"/>
<path d="M2558 783 c7 -3 16 -2 19 1 4 3 -2 6 -13 5 -11 0 -14 -3 -6 -6z"/>
<path d="M2780 731 c0 -5 5 -13 10 -16 6 -3 10 -2 10 4 0 5 -4 13 -10 16 -5 3
-10 2 -10 -4z"/>
<path d="M2789 663 c-13 -16 -12 -17 4 -4 16 13 21 21 13 21 -2 0 -10 -8 -17
-17z"/>
<path d="M3090 664 c0 -11 42 -54 53 -54 4 0 7 7 7 15 0 8 -6 12 -14 9 -8 -3
-21 5 -30 18 -9 12 -16 18 -16 12z"/>
<path d="M2880 580 c0 -5 5 -10 11 -10 5 0 7 5 4 10 -3 6 -8 10 -11 10 -2 0
-4 -4 -4 -10z"/>
<path d="M2976 582 c-10 -17 -1 -27 39 -46 35 -17 61 -14 49 6 -4 6 3 5 16 -2
18 -9 21 -9 18 1 -4 11 -22 18 -55 21 -6 1 -9 8 -5 16 3 10 0 13 -9 10 -8 -3
-13 -11 -11 -17 3 -16 -9 -13 -23 6 -8 11 -14 13 -19 5z"/>
<path d="M3825 541 c-3 -5 -1 -12 5 -16 5 -3 10 1 10 9 0 18 -6 21 -15 7z"/>
<path d="M2724 515 c3 -21 16 -31 16 -12 0 9 -4 18 -9 21 -5 4 -8 -1 -7 -9z"/>
<path d="M2814 500 c-1 -16 3 -27 7 -24 11 6 12 54 2 54 -5 0 -8 -13 -9 -30z"/>
<path d="M2701 444 c0 -11 3 -14 6 -6 3 7 2 16 -1 19 -3 4 -6 -2 -5 -13z"/>
<path d="M3562 314 c-24 -16 -31 -64 -9 -64 14 0 39 26 57 59 9 18 8 21 -7 21
-10 0 -29 -7 -41 -16z"/>
<path d="M3270 297 c-20 -10 -26 -21 -28 -56 l-3 -43 27 21 c15 11 38 21 53
21 23 -1 24 -2 10 -13 -18 -14 -42 -87 -29 -87 5 0 17 11 28 25 11 13 22 21
26 18 11 -11 6 -23 -10 -23 -8 0 -13 -4 -9 -9 3 -6 -3 -15 -12 -20 -14 -9 -7
-10 33 -8 l52 2 5 54 c6 59 -9 103 -40 116 -35 13 -79 14 -103 2z"/>
<path d="M3915 233 c-24 -36 -35 -103 -17 -103 22 0 55 52 59 94 7 57 -7 60
-42 9z"/>
<path d="M3595 230 c3 -5 8 -10 11 -10 2 0 4 5 4 10 0 6 -5 10 -11 10 -5 0 -7
-4 -4 -10z"/>
<path d="M3525 151 l-39 -26 43 -3 c50 -4 47 -5 56 29 8 34 -9 34 -60 0z"/>
<path d="M3597 156 c-4 -15 -6 -31 -2 -34 10 -10 16 6 13 35 l-3 28 -8 -29z"/>
<path d="M1657 19 c7 -7 15 -10 18 -7 3 3 -2 9 -12 12 -14 6 -15 5 -6 -5z"/>
</g>
</svg>
