<?xml version="1.0" standalone="no"?>
<!DOCTYPE svg PUBLIC "-//W3C//DTD SVG 20010904//EN"
 "http://www.w3.org/TR/2001/REC-SVG-20010904/DTD/svg10.dtd">
<svg version="1.0" xmlns="http://www.w3.org/2000/svg"
 width="176.000000pt" height="235.000000pt" viewBox="0 0 176.000000 235.000000"
 preserveAspectRatio="xMidYMid meet">

<g transform="translate(0.000000,235.000000) scale(0.100000,-0.100000)"
fill="#000000" stroke="none">
<path d="M29 2321 l-29 -30 2 -233 3 -233 49 -3 c32 -2 52 1 57 10 11 18 -1
60 -23 78 -29 24 -34 107 -9 147 14 23 26 31 41 28 11 -2 20 0 20 4 0 11 62 7
85 -7 11 -6 15 -12 9 -12 -15 0 -9 -81 8 -91 11 -8 11 -11 -1 -18 -9 -6 -10
-11 -2 -15 21 -13 12 -33 -14 -31 -13 2 -30 -4 -37 -13 -10 -12 -10 -14 -1 -8
7 4 13 3 13 -2 0 -6 10 -12 23 -16 27 -6 57 -54 57 -91 0 -44 -31 -90 -66 -97
-18 -4 -18 -5 3 -16 19 -10 49 -19 76 -21 5 -1 5 -6 2 -12 -4 -6 0 -9 8 -7 9
2 22 -5 30 -16 20 -27 104 -15 117 17 6 18 9 12 15 -31 10 -73 25 -75 25 -3 0
32 3 66 6 75 8 21 36 8 29 -14 -4 -12 1 -19 17 -23 21 -6 21 -7 5 -25 -16 -18
-16 -20 -2 -26 9 -3 25 -6 36 -6 12 0 16 -5 13 -15 -10 -25 25 -18 51 11 28
31 25 42 -19 72 l-34 23 25 25 c13 13 21 29 18 35 -4 5 -1 16 5 24 10 12 9 15
-4 15 -9 0 -16 -7 -16 -15 0 -8 -4 -15 -10 -15 -5 0 -7 8 -4 18 4 13 2 12 -7
-3 -16 -27 -29 -35 -56 -35 -15 0 -23 6 -23 16 0 10 -6 14 -15 10 -10 -3 -15
1 -16 12 -1 11 -4 8 -8 -8 -5 -14 -4 -33 2 -44 6 -12 6 -16 -1 -12 -6 4 -15
-1 -20 -10 -8 -15 -10 -15 -16 1 -3 10 -1 24 5 31 7 8 9 29 6 49 -3 21 0 50 9
70 8 19 14 40 13 47 0 7 -4 4 -8 -7 -6 -16 -10 -10 -15 27 -6 40 -2 60 31 142
21 52 40 93 44 91 13 -9 129 180 129 210 0 3 -135 5 -301 5 l-301 0 -29 -29z
m473 -190 c8 11 9 11 6 1 -4 -16 -22 -18 -25 -2 -1 7 0 6 4 -1 4 -8 8 -7 15 2z"/>
<path d="M1244 2323 c-4 -16 -10 -30 -14 -33 -7 -5 -60 -116 -80 -167 -12 -32
-8 -53 12 -53 5 0 8 7 5 15 -4 8 -2 17 4 20 5 4 9 3 8 -2 -4 -25 3 -35 22 -30
17 4 18 3 8 -9 -10 -12 -9 -13 4 -9 8 4 22 21 31 38 12 24 16 27 16 12 0 -17
2 -17 10 -5 8 13 10 12 10 -3 0 -9 11 -27 24 -38 13 -12 28 -37 32 -57 4 -21
9 -44 11 -52 2 -8 4 -71 4 -140 0 -69 6 -152 13 -185 11 -56 13 -59 25 -37 7
13 20 31 30 41 41 41 100 -28 102 -120 0 -24 3 -52 7 -61 6 -15 10 -15 32 -3
14 8 19 14 12 15 -19 0 -46 64 -38 93 3 13 24 43 46 65 34 33 46 40 72 37 17
-3 33 -7 36 -10 3 -2 11 0 19 6 9 9 13 8 13 0 0 -6 9 -11 20 -11 18 0 20 7 20
80 0 73 -2 80 -19 80 -15 0 -22 10 -29 43 -4 23 -4 45 0 48 5 3 8 10 7 15 -2
5 7 29 19 53 19 39 22 61 22 177 0 73 -4 144 -10 158 -17 46 -119 78 -121 39
-4 -72 -11 -102 -37 -167 -17 -41 -33 -105 -37 -142 -7 -61 -12 -74 -46 -111
-26 -28 -37 -48 -33 -60 5 -15 4 -15 -4 -3 -6 8 -8 18 -5 23 3 5 6 93 8 196 1
102 6 195 12 206 6 11 13 32 17 48 l6 27 -130 0 -130 0 -6 -27z m13 -135 c-3
-8 -6 -5 -6 6 -1 11 2 17 5 13 3 -3 4 -12 1 -19z"/>
<path d="M810 1981 c0 -5 7 -15 17 -22 15 -13 15 -12 4 9 -12 23 -21 28 -21
13z"/>
<path d="M894 1873 c7 -21 11 -42 10 -48 -2 -5 7 -23 21 -40 34 -41 32 -14 -5
63 -33 69 -46 82 -26 25z"/>
<path d="M136 1883 c-6 -14 -5 -15 5 -6 7 7 10 15 7 18 -3 3 -9 -2 -12 -12z"/>
<path d="M808 1830 c28 -12 29 -24 1 -17 -24 6 -38 -18 -20 -36 20 -20 12 -30
-20 -23 -18 3 -38 14 -45 24 -7 9 -14 12 -14 6 0 -6 7 -17 15 -24 8 -7 12 -17
9 -22 -4 -5 -15 3 -26 19 l-20 28 7 -30 c3 -16 16 -38 28 -47 20 -15 20 -17 4
-23 -9 -4 -17 -16 -17 -26 0 -10 -4 -19 -10 -19 -6 0 -6 -9 0 -26 6 -14 10
-36 10 -50 0 -15 6 -24 16 -24 10 0 13 6 10 18 -5 15 -1 17 29 14 38 -5 80 21
68 41 -3 5 -1 7 4 4 6 -4 16 0 22 7 9 11 9 20 -1 37 -11 18 -11 22 0 26 9 4
10 8 2 18 -8 10 -6 15 12 20 14 5 24 3 26 -5 7 -21 61 -76 62 -62 0 25 -41 87
-62 92 -27 7 -35 27 -12 32 20 4 -59 58 -84 57 -12 0 -10 -3 6 -9z"/>
<path d="M500 1789 c0 -5 5 -7 10 -4 6 3 10 8 10 11 0 2 -4 4 -10 4 -5 0 -10
-5 -10 -11z"/>
<path d="M890 1660 c6 -11 8 -25 5 -30 -4 -6 1 -13 9 -16 25 -10 9 -23 -21
-18 -15 3 -30 0 -34 -8 -11 -18 0 -30 22 -23 25 8 24 -10 -1 -35 -22 -22 -37
-24 -92 -11 -35 8 -39 7 -51 -18 -9 -18 -22 -28 -47 -31 -31 -5 -33 -7 -12
-14 33 -11 29 -38 -5 -34 -26 3 -28 6 -25 42 l4 38 -31 -18 c-41 -24 -44 -38
-21 -82 12 -24 19 -31 20 -18 0 12 5 16 15 12 52 -21 51 -21 36 -3 -12 15 -9
17 30 17 24 0 54 3 67 6 18 5 21 3 16 -10 -3 -9 -14 -16 -23 -17 -13 0 -12 -2
3 -8 19 -7 18 -8 -5 -15 -14 -4 -19 -9 -11 -13 7 -3 25 3 40 13 15 10 34 17
44 16 9 -2 23 7 32 20 30 42 17 -7 -14 -53 -31 -48 -82 -79 -130 -79 l-30 0
20 -20 c11 -11 20 -29 20 -39 0 -50 41 -67 92 -40 20 11 20 9 14 -34 -9 -58 8
-70 31 -23 19 41 38 46 47 14 l6 -23 16 24 c15 21 16 33 5 115 -7 50 -10 130
-8 177 4 71 8 90 26 108 23 23 27 41 11 41 -7 0 -7 6 -1 19 9 16 4 25 -29 55
-45 41 -55 45 -40 16z m-120 -160 c0 -5 -7 -10 -15 -10 -8 0 -15 5 -15 10 0 6
7 10 15 10 8 0 15 -4 15 -10z"/>
<path d="M1375 1535 c-3 -11 -11 -28 -16 -37 -17 -32 -10 -58 17 -68 33 -13
74 -13 74 0 0 18 -30 70 -39 70 -5 0 -14 12 -19 28 -9 25 -10 25 -17 7z"/>
<path d="M501 1524 c0 -11 3 -14 6 -6 3 7 2 16 -1 19 -3 4 -6 -2 -5 -13z"/>
<path d="M225 1484 c-16 -7 -47 -13 -67 -14 -33 0 -38 -3 -38 -22 0 -16 -3
-19 -8 -10 -6 8 -9 0 -9 -20 0 -55 -7 -87 -17 -81 -5 4 -7 -1 -3 -11 4 -10 3
-15 -3 -11 -6 3 -10 1 -10 -5 0 -6 -4 -9 -9 -5 -5 3 -13 0 -17 -6 -4 -7 -3 -9
3 -6 6 4 16 1 21 -6 9 -10 4 -12 -23 -9 -19 2 -32 8 -29 13 3 5 0 9 -6 9 -6 0
-10 -8 -8 -17 2 -12 15 -18 43 -20 22 -1 56 -4 75 -7 19 -2 59 -5 88 -5 59 -1
71 -15 15 -18 -63 -3 -55 -18 10 -16 110 3 144 11 172 44 31 37 34 62 3 29
-19 -20 -22 -21 -27 -7 -4 11 -11 13 -20 8 -20 -13 -44 14 -47 53 -3 48 -20
136 -28 143 -11 12 -30 11 -61 -3z m149 -235 c-3 -6 -12 -8 -20 -5 -8 3 -14 2
-14 -3 0 -5 -16 -8 -35 -7 -44 1 -46 16 -2 16 17 0 39 4 47 9 17 11 33 4 24
-10z"/>
<path d="M1663 1422 c-4 -10 -8 -11 -13 -2 -13 21 -32 -1 -28 -31 3 -16 3 -27
0 -25 -2 3 -14 1 -26 -4 -12 -4 -29 -4 -38 1 -9 5 -19 6 -22 1 -5 -9 -52 -8
-85 3 -19 6 -21 3 -21 -33 0 -28 -8 -47 -29 -71 -27 -30 -34 -33 -76 -29 -35
2 -42 1 -30 -8 16 -12 21 -29 5 -19 -6 3 -7 -1 -4 -9 3 -9 11 -16 18 -16 6 0
24 -17 39 -38 l29 -37 -32 33 c-17 19 -33 32 -36 30 -2 -3 12 -20 32 -39 29
-28 36 -31 44 -19 8 13 10 12 10 -2 0 -12 5 -15 17 -11 12 5 14 3 8 -8 -8 -12
-6 -12 8 0 15 12 17 11 17 -3 0 -10 5 -14 10 -11 6 3 10 1 10 -5 0 -6 4 -8 10
-5 6 4 7 -1 3 -11 -5 -13 -3 -15 8 -9 11 7 11 5 -1 -10 -9 -11 -10 -16 -2 -11
12 7 15 -8 14 -79 -1 -29 -1 -29 7 -5 8 23 9 23 10 3 1 -12 4 -29 8 -38 5 -15
8 -14 19 6 7 13 13 18 14 11 0 -8 5 -10 13 -6 6 4 9 4 5 -1 -4 -4 -3 -14 3
-22 16 -18 4 -17 -15 2 -13 14 -15 13 -13 -4 0 -11 4 -18 8 -15 6 3 6 -4 0
-35 -1 -2 -9 3 -18 10 -15 12 -16 12 -10 -5 6 -16 5 -17 -7 -7 -12 11 -16 6
-21 -26 -10 -56 -15 -63 -13 -18 2 43 -4 69 -29 127 -13 32 -18 36 -34 27 -25
-13 -52 -76 -50 -115 2 -36 -33 -81 -57 -76 -10 2 -25 11 -34 19 -23 21 -46
10 -54 -24 -6 -26 -35 -63 -49 -63 -11 0 -33 64 -45 128 -9 52 -8 78 6 155 20
104 24 190 9 195 -5 2 -17 8 -26 13 -13 6 -27 -8 -67 -69 -116 -177 -224 -244
-342 -212 -90 24 -154 99 -211 250 -32 84 -33 85 -41 52 -5 -18 -13 -30 -18
-27 -6 3 -6 15 0 30 5 14 6 25 2 25 -14 0 -39 -72 -52 -150 -16 -96 -41 -167
-89 -254 -21 -39 -41 -80 -43 -91 -4 -17 -6 -16 -17 10 -32 79 -42 93 -61 88
-24 -6 -29 -31 -13 -63 17 -33 16 -69 -2 -104 -8 -15 -15 -35 -15 -43 0 -7 -9
-31 -20 -53 -11 -21 -22 -55 -24 -75 -3 -19 -12 -56 -22 -80 -15 -40 -24 -49
-45 -47 -3 1 -6 -5 -6 -13 0 -8 5 -12 11 -9 6 3 1 -3 -10 -13 -36 -31 -44 -58
-44 -158 0 -107 12 -144 55 -163 19 -9 202 -12 714 -12 l688 0 7 58 c3 31 8
74 11 95 2 21 19 84 36 140 17 56 37 124 45 150 7 27 25 77 39 112 14 35 25
72 25 83 0 21 51 198 81 282 53 145 59 183 59 355 l0 166 -46 -2 c-28 -2 -48
-8 -51 -17z m-58 -481 c3 -5 2 -12 -3 -15 -5 -3 -9 1 -9 9 0 17 3 19 12 6z
m-68 -23 c-3 -8 -6 -5 -6 6 -1 11 2 17 5 13 3 -3 4 -12 1 -19z m56 -170 c5 1
5 -3 1 -9 -4 -7 -8 -24 -9 -38 -1 -14 -6 -25 -12 -24 -5 1 -10 -4 -10 -12 0
-8 4 -12 9 -9 4 3 8 1 8 -4 0 -5 -11 -15 -25 -22 -14 -8 -23 -20 -21 -27 3 -7
0 -12 -7 -10 -6 1 -11 -9 -11 -25 1 -16 -3 -28 -7 -28 -5 0 -9 -8 -9 -17 1
-16 2 -16 12 2 7 11 13 26 14 33 2 8 6 17 10 20 4 4 4 -1 1 -10 -3 -10 -2 -20
3 -23 9 -6 5 -44 -6 -54 -4 -3 -4 2 -1 12 4 9 2 17 -3 17 -6 0 -10 -7 -10 -16
0 -9 -5 -12 -12 -8 -7 5 -8 3 -2 -7 13 -21 17 -62 5 -55 -5 4 -8 15 -6 26 2
12 0 18 -5 15 -5 -3 -7 -14 -5 -25 4 -22 -10 -37 -18 -17 -8 21 0 261 9 285
14 32 53 52 79 38 11 -6 24 -9 28 -8z m-1349 -371 c1 -121 -1 -154 -12 -154
-7 0 -11 6 -8 13 3 8 -2 11 -15 9 -11 -2 -19 2 -19 10 0 8 -6 12 -14 9 -12 -5
-13 0 -6 23 13 37 52 190 58 226 9 57 15 13 16 -136z m195 97 c4 -4 -15 -90
-26 -120 -2 -6 7 -14 21 -16 26 -5 35 6 37 45 0 12 3 16 6 10 6 -17 30 -17 35
-1 3 7 8 -7 12 -31 4 -24 4 -46 1 -49 -3 -3 -5 4 -5 16 0 12 -9 26 -20 32 -17
9 -20 7 -26 -15 -6 -26 -35 -33 -63 -16 -11 7 -10 18 3 65 17 59 15 76 -10 76
-8 0 -14 5 -14 11 0 9 37 4 49 -7z m780 -111 c1 -44 4 -92 7 -106 3 -19 -1
-27 -16 -32 -11 -3 -20 -12 -20 -18 0 -7 -4 -6 -10 3 -9 13 -10 13 -10 0 0
-13 -1 -13 -10 0 -14 21 -12 33 3 24 9 -5 9 -4 1 5 -8 8 -4 43 13 124 12 62
23 117 24 122 3 32 16 -53 18 -122z m-713 53 c-2 -6 -5 -2 -6 9 l-1 20 -9 -20
c-8 -18 -9 -18 -9 6 -1 14 2 29 6 33 9 9 25 -33 19 -48z m104 46 c0 -5 -10 -8
-22 -8 -18 1 -24 -5 -26 -26 -3 -23 1 -28 17 -28 12 0 21 -4 21 -10 0 -5 -8
-10 -18 -10 -12 0 -22 -11 -29 -32 -5 -18 -8 -24 -6 -13 1 11 3 46 3 78 0 57
0 57 30 57 17 0 30 -4 30 -8z m80 -2 c0 -5 -11 -10 -25 -10 -20 0 -25 -5 -25
-26 0 -18 6 -28 23 -32 22 -6 22 -6 -3 -12 -37 -9 -41 -57 -6 -66 14 -3 26
-10 26 -15 0 -8 -47 -2 -58 6 -1 1 0 39 4 84 7 81 7 81 35 81 16 0 29 -4 29
-10z m90 -20 c8 -16 8 -28 -4 -51 -8 -17 -13 -45 -10 -67 l4 -37 -12 39 c-18
54 -35 56 -47 4 l-10 -43 5 50 c11 115 14 125 40 125 13 0 28 -9 34 -20z m99
-6 c2 -2 -10 -4 -27 -4 -28 0 -32 -4 -32 -25 0 -17 7 -29 23 -35 21 -8 21 -9
-5 -9 -17 -1 -28 -7 -28 -15 0 -8 -3 -21 -6 -30 -5 -12 0 -16 20 -16 14 0 26
-4 26 -10 0 -12 -47 -13 -54 -1 -5 7 10 117 20 149 3 11 49 8 63 -4z m79 -29
l4 -20 -16 20 c-16 20 -16 20 -31 1 -12 -15 -15 -16 -15 -5 0 22 11 30 34 27
12 -2 22 -12 24 -23z m-683 -4 c3 -5 2 -12 -3 -15 -5 -3 -9 1 -9 9 0 17 3 19
12 6z m31 -66 c1 -23 -1 -24 -16 -10 -9 8 -19 12 -23 9 -8 -8 -3 18 7 34 11
19 30 -1 32 -33z m633 -4 c0 -14 -1 -14 -6 -1 -3 8 -12 19 -19 23 -8 4 -14 13
-14 19 0 6 9 3 20 -7 11 -10 20 -25 19 -34z m-14 -40 c-8 -14 -45 -14 -45 -1
0 5 6 7 14 4 8 -3 17 0 21 6 4 6 9 9 12 6 3 -2 2 -9 -2 -15z m-857 -40 c-26
-34 -44 -41 -28 -11 9 16 36 39 48 40 2 0 -7 -13 -20 -29z m420 -74 c-8 -55
-8 -72 3 -83 24 -23 40 0 52 75 6 39 15 71 19 71 7 0 1 -50 -16 -120 -12 -48
-34 -62 -63 -39 -12 11 -14 26 -8 83 6 65 13 92 20 84 1 -2 -2 -34 -7 -71z
m193 26 c5 -14 4 -23 -1 -23 -6 0 -10 7 -10 15 0 20 -39 19 -47 -1 -4 -10 6
-26 26 -44 17 -16 31 -35 31 -42 0 -21 -29 -58 -45 -58 -16 0 -51 47 -42 56 3
3 10 -4 17 -15 14 -26 36 -27 50 -1 9 16 5 23 -20 41 -32 24 -40 65 -18 87 19
19 50 10 59 -15z m121 -88 c3 -38 3 -60 1 -47 -6 30 -59 32 -68 2 -3 -11 -10
-20 -15 -20 -4 0 4 30 19 68 15 37 31 76 35 87 l8 20 8 -20 c4 -11 10 -51 12
-90z m335 43 c-3 -7 -5 -2 -5 12 0 14 2 19 5 13 2 -7 2 -19 0 -25z"/>
<path d="M725 419 c-4 -12 -2 -26 3 -31 17 -17 42 -1 42 27 0 32 -35 35 -45 4z"/>
<path d="M276 362 c-3 -5 1 -15 8 -21 11 -10 14 -9 12 3 -3 21 -13 29 -20 18z"/>
<path d="M763 145 c-10 -32 -9 -35 8 -35 15 0 19 7 19 35 0 19 -4 35 -8 35 -5
0 -13 -16 -19 -35z"/>
<path d="M630 1286 c0 -2 7 -7 16 -10 8 -3 12 -2 9 4 -6 10 -25 14 -25 6z"/>
<path d="M721 1110 c0 -15 3 -19 6 -10 4 8 13 20 20 25 12 9 10 11 -6 11 -16
0 -21 -6 -20 -26z"/>
<path d="M6 734 c-8 -21 -8 -139 0 -131 4 3 8 23 9 44 1 21 5 53 9 71 8 33 -7
46 -18 16z"/>
</g>
</svg>
